<mxfile host="app.diagrams.net" modified="2023-11-15T22:42:23.065Z" agent="Mozilla/5.0 (X11; Linux x86_64) AppleWebKit/537.36 (KHTML, like Gecko) Chrome/119.0.0.0 Safari/537.36 Edg/119.0.0.0" etag="7-2Z2Q4ysnqIBNTG3-HZ" version="22.1.2" type="google" pages="3">
  <diagram name="Diagrama Componentes y Conectores" id="0eJOmAtrOKQApkF8NbVF">
    <mxGraphModel dx="1939" dy="485" grid="0" gridSize="10" guides="1" tooltips="1" connect="1" arrows="1" fold="1" page="1" pageScale="1" pageWidth="827" pageHeight="1169" math="0" shadow="0">
      <root>
        <mxCell id="0" />
        <mxCell id="1" parent="0" />
        <mxCell id="EwN7bqzcY9QhMoL5MkPz-46" value="" style="group" parent="1" connectable="0" vertex="1">
          <mxGeometry x="111" y="92" width="318" height="362" as="geometry" />
        </mxCell>
        <mxCell id="EwN7bqzcY9QhMoL5MkPz-38" value="Services" style="text;align=center;fontStyle=1;verticalAlign=middle;spacingLeft=3;spacingRight=3;strokeColor=none;rotatable=0;points=[[0,0.5],[1,0.5]];portConstraint=eastwest;html=1;" parent="EwN7bqzcY9QhMoL5MkPz-46" vertex="1">
          <mxGeometry x="91" y="-4" width="103.2" height="56.114170506912444" as="geometry" />
        </mxCell>
        <mxCell id="EwN7bqzcY9QhMoL5MkPz-2" value="" style="shape=folder;fontStyle=1;spacingTop=10;tabWidth=40;tabHeight=14;tabPosition=left;html=1;whiteSpace=wrap;fillColor=#f5f5f5;strokeColor=#666666;fontColor=#333333;" parent="EwN7bqzcY9QhMoL5MkPz-46" vertex="1">
          <mxGeometry y="21.58862903225806" width="318" height="340.4113709677419" as="geometry" />
        </mxCell>
        <mxCell id="XWFxjJRULagfrGLMHJp9-32" value="Services&lt;br&gt;Portafolio" style="shape=module;align=left;spacingLeft=20;align=center;verticalAlign=top;whiteSpace=wrap;html=1;" parent="EwN7bqzcY9QhMoL5MkPz-46" vertex="1">
          <mxGeometry x="80" y="166" width="104" height="54" as="geometry" />
        </mxCell>
        <mxCell id="XWFxjJRULagfrGLMHJp9-33" value="Services&lt;br&gt;Bolsa de Valores" style="shape=module;align=left;spacingLeft=20;align=center;verticalAlign=top;whiteSpace=wrap;html=1;" parent="EwN7bqzcY9QhMoL5MkPz-46" vertex="1">
          <mxGeometry x="84" y="70" width="100" height="53" as="geometry" />
        </mxCell>
        <mxCell id="XWFxjJRULagfrGLMHJp9-34" value="Services&lt;br&gt;Cliente" style="shape=module;align=left;spacingLeft=20;align=center;verticalAlign=top;whiteSpace=wrap;html=1;" parent="EwN7bqzcY9QhMoL5MkPz-46" vertex="1">
          <mxGeometry x="80" y="250" width="100" height="54" as="geometry" />
        </mxCell>
        <mxCell id="EwN7bqzcY9QhMoL5MkPz-3" value="Cliente&lt;br&gt;" style="shape=umlActor;verticalLabelPosition=bottom;verticalAlign=top;html=1;" parent="1" vertex="1">
          <mxGeometry x="-480" y="220" width="30" height="60" as="geometry" />
        </mxCell>
        <mxCell id="EwN7bqzcY9QhMoL5MkPz-112" value="&lt;span style=&quot;font-size: 20px;&quot;&gt;DIAGRAMA DE COMPONENTES Y CONECTORES&lt;/span&gt;" style="text;align=center;fontStyle=1;verticalAlign=middle;spacingLeft=3;spacingRight=3;strokeColor=none;rotatable=0;points=[[0,0.5],[1,0.5]];portConstraint=eastwest;html=1;" parent="1" vertex="1">
          <mxGeometry x="109" y="27" width="80" height="26" as="geometry" />
        </mxCell>
        <mxCell id="EwN7bqzcY9QhMoL5MkPz-7" value="" style="shape=folder;fontStyle=1;spacingTop=10;tabWidth=40;tabHeight=14;tabPosition=left;html=1;whiteSpace=wrap;fillColor=#f5f5f5;strokeColor=#666666;fontColor=#333333;" parent="1" vertex="1">
          <mxGeometry x="491" y="146" width="154" height="258" as="geometry" />
        </mxCell>
        <mxCell id="EwN7bqzcY9QhMoL5MkPz-28" value="" style="endArrow=open;endFill=1;endSize=12;html=1;rounded=0;entryX=0;entryY=0.5;entryDx=0;entryDy=0;exitX=1;exitY=0.5;exitDx=0;exitDy=0;" parent="1" source="XWFxjJRULagfrGLMHJp9-33" target="EwN7bqzcY9QhMoL5MkPz-5" edge="1">
          <mxGeometry width="160" relative="1" as="geometry">
            <mxPoint x="317" y="185.115" as="sourcePoint" />
            <mxPoint x="518" y="197" as="targetPoint" />
          </mxGeometry>
        </mxCell>
        <mxCell id="L_peCH31hDPEo_YxaxnH-8" value="Solicita&amp;nbsp;&lt;br style=&quot;border-color: var(--border-color);&quot;&gt;Datos &lt;br&gt;Acciones" style="edgeLabel;html=1;align=center;verticalAlign=middle;resizable=0;points=[];" parent="EwN7bqzcY9QhMoL5MkPz-28" connectable="0" vertex="1">
          <mxGeometry x="-0.0053" y="-3" relative="1" as="geometry">
            <mxPoint as="offset" />
          </mxGeometry>
        </mxCell>
        <mxCell id="EwN7bqzcY9QhMoL5MkPz-39" value="Repositories" style="text;align=center;fontStyle=1;verticalAlign=middle;spacingLeft=3;spacingRight=3;strokeColor=none;rotatable=0;points=[[0,0.5],[1,0.5]];portConstraint=eastwest;html=1;" parent="1" vertex="1">
          <mxGeometry x="533" y="130" width="80" height="26" as="geometry" />
        </mxCell>
        <mxCell id="L_peCH31hDPEo_YxaxnH-6" value="" style="endArrow=open;endFill=1;endSize=12;html=1;rounded=0;entryX=0;entryY=0.5;entryDx=0;entryDy=0;exitX=1;exitY=0.5;exitDx=0;exitDy=0;" parent="1" source="XWFxjJRULagfrGLMHJp9-34" target="XWFxjJRULagfrGLMHJp9-2" edge="1">
          <mxGeometry width="160" relative="1" as="geometry">
            <mxPoint x="321" y="381.64934000000005" as="sourcePoint" />
            <mxPoint x="520" y="303" as="targetPoint" />
          </mxGeometry>
        </mxCell>
        <mxCell id="L_peCH31hDPEo_YxaxnH-7" value="Solicita&amp;nbsp;&lt;br&gt;Datos de&lt;br&gt;Cliente" style="edgeLabel;html=1;align=center;verticalAlign=middle;resizable=0;points=[];" parent="L_peCH31hDPEo_YxaxnH-6" connectable="0" vertex="1">
          <mxGeometry x="0.0826" y="-1" relative="1" as="geometry">
            <mxPoint as="offset" />
          </mxGeometry>
        </mxCell>
        <mxCell id="EwN7bqzcY9QhMoL5MkPz-5" value="Bolsa Valores" style="shape=datastore;whiteSpace=wrap;html=1;fillColor=#dae8fc;strokeColor=#6c8ebf;gradientColor=#7ea6e0;" parent="1" vertex="1">
          <mxGeometry x="525" y="187" width="90" height="69" as="geometry" />
        </mxCell>
        <mxCell id="XWFxjJRULagfrGLMHJp9-2" value="Clientes" style="shape=datastore;whiteSpace=wrap;html=1;fillColor=#dae8fc;strokeColor=#6c8ebf;gradientColor=#7ea6e0;" parent="1" vertex="1">
          <mxGeometry x="523" y="294" width="90" height="69" as="geometry" />
        </mxCell>
        <mxCell id="XWFxjJRULagfrGLMHJp9-5" value="" style="shape=folder;fontStyle=1;spacingTop=10;tabWidth=40;tabHeight=14;tabPosition=left;html=1;whiteSpace=wrap;fillColor=#f5f5f5;strokeColor=#666666;fontColor=#333333;" parent="1" vertex="1">
          <mxGeometry x="-248" y="115" width="318" height="341" as="geometry" />
        </mxCell>
        <mxCell id="XWFxjJRULagfrGLMHJp9-14" value="Controller" style="text;align=center;fontStyle=1;verticalAlign=middle;spacingLeft=3;spacingRight=3;strokeColor=none;rotatable=0;points=[[0,0.5],[1,0.5]];portConstraint=eastwest;html=1;" parent="1" vertex="1">
          <mxGeometry x="-149.6" y="92" width="103.2" height="46.813479262672814" as="geometry" />
        </mxCell>
        <mxCell id="XWFxjJRULagfrGLMHJp9-15" value="Controller&lt;br&gt;Portafolio" style="shape=module;align=left;spacingLeft=20;align=center;verticalAlign=top;whiteSpace=wrap;html=1;" parent="1" vertex="1">
          <mxGeometry x="-152" y="256" width="104" height="54" as="geometry" />
        </mxCell>
        <mxCell id="XWFxjJRULagfrGLMHJp9-26" value="Controller&lt;br&gt;Bolsa de Valores" style="shape=module;align=left;spacingLeft=20;align=center;verticalAlign=top;whiteSpace=wrap;html=1;" parent="1" vertex="1">
          <mxGeometry x="-150" y="167" width="100" height="53" as="geometry" />
        </mxCell>
        <mxCell id="XWFxjJRULagfrGLMHJp9-27" value="Controller&lt;br&gt;Cliente" style="shape=module;align=left;spacingLeft=20;align=center;verticalAlign=top;whiteSpace=wrap;html=1;" parent="1" vertex="1">
          <mxGeometry x="-148" y="340" width="100" height="54" as="geometry" />
        </mxCell>
        <mxCell id="XWFxjJRULagfrGLMHJp9-30" value="" style="endArrow=open;endFill=1;endSize=12;html=1;rounded=0;entryX=0.072;entryY=0.434;entryDx=0;entryDy=0;entryPerimeter=0;exitX=1;exitY=0.5;exitDx=0;exitDy=0;" parent="1" source="XWFxjJRULagfrGLMHJp9-26" target="XWFxjJRULagfrGLMHJp9-33" edge="1">
          <mxGeometry width="160" relative="1" as="geometry">
            <mxPoint x="1" y="261" as="sourcePoint" />
            <mxPoint x="68" y="161" as="targetPoint" />
          </mxGeometry>
        </mxCell>
        <mxCell id="XWFxjJRULagfrGLMHJp9-31" value="Procesa&lt;br&gt;Solicitudes" style="edgeLabel;html=1;align=center;verticalAlign=middle;resizable=0;points=[];" parent="XWFxjJRULagfrGLMHJp9-30" connectable="0" vertex="1">
          <mxGeometry x="0.014" relative="1" as="geometry">
            <mxPoint y="-1" as="offset" />
          </mxGeometry>
        </mxCell>
        <mxCell id="XWFxjJRULagfrGLMHJp9-35" value="" style="endArrow=open;endFill=1;endSize=12;html=1;rounded=0;entryX=0;entryY=0.5;entryDx=0;entryDy=0;exitX=1;exitY=0.5;exitDx=0;exitDy=0;" parent="1" source="XWFxjJRULagfrGLMHJp9-32" target="XWFxjJRULagfrGLMHJp9-2" edge="1">
          <mxGeometry width="160" relative="1" as="geometry">
            <mxPoint x="301" y="379" as="sourcePoint" />
            <mxPoint x="533" y="339" as="targetPoint" />
          </mxGeometry>
        </mxCell>
        <mxCell id="XWFxjJRULagfrGLMHJp9-36" value="Solicita&amp;nbsp;&lt;br&gt;Datos de&lt;br&gt;Cliente" style="edgeLabel;html=1;align=center;verticalAlign=middle;resizable=0;points=[];" parent="XWFxjJRULagfrGLMHJp9-35" connectable="0" vertex="1">
          <mxGeometry x="0.0826" y="-1" relative="1" as="geometry">
            <mxPoint as="offset" />
          </mxGeometry>
        </mxCell>
        <mxCell id="XWFxjJRULagfrGLMHJp9-37" value="" style="endArrow=open;endFill=1;endSize=12;html=1;rounded=0;entryX=0.108;entryY=0.485;entryDx=0;entryDy=0;entryPerimeter=0;exitX=1;exitY=0.5;exitDx=0;exitDy=0;" parent="1" source="XWFxjJRULagfrGLMHJp9-15" target="XWFxjJRULagfrGLMHJp9-32" edge="1">
          <mxGeometry width="160" relative="1" as="geometry">
            <mxPoint x="-35" y="204" as="sourcePoint" />
            <mxPoint x="212" y="195" as="targetPoint" />
          </mxGeometry>
        </mxCell>
        <mxCell id="XWFxjJRULagfrGLMHJp9-38" value="Procesa&lt;br&gt;Solicitudes" style="edgeLabel;html=1;align=center;verticalAlign=middle;resizable=0;points=[];" parent="XWFxjJRULagfrGLMHJp9-37" connectable="0" vertex="1">
          <mxGeometry x="0.014" relative="1" as="geometry">
            <mxPoint y="-1" as="offset" />
          </mxGeometry>
        </mxCell>
        <mxCell id="XWFxjJRULagfrGLMHJp9-39" value="" style="endArrow=open;endFill=1;endSize=12;html=1;rounded=0;entryX=0.096;entryY=0.515;entryDx=0;entryDy=0;entryPerimeter=0;exitX=1;exitY=0.5;exitDx=0;exitDy=0;" parent="1" source="XWFxjJRULagfrGLMHJp9-27" target="XWFxjJRULagfrGLMHJp9-34" edge="1">
          <mxGeometry width="160" relative="1" as="geometry">
            <mxPoint x="-38" y="293" as="sourcePoint" />
            <mxPoint x="212" y="294" as="targetPoint" />
          </mxGeometry>
        </mxCell>
        <mxCell id="XWFxjJRULagfrGLMHJp9-40" value="Procesa&lt;br&gt;Solicitudes" style="edgeLabel;html=1;align=center;verticalAlign=middle;resizable=0;points=[];" parent="XWFxjJRULagfrGLMHJp9-39" connectable="0" vertex="1">
          <mxGeometry x="0.014" relative="1" as="geometry">
            <mxPoint y="-1" as="offset" />
          </mxGeometry>
        </mxCell>
        <mxCell id="XWFxjJRULagfrGLMHJp9-46" value="" style="endArrow=classic;html=1;rounded=0;entryX=0.144;entryY=0.626;entryDx=0;entryDy=0;entryPerimeter=0;exitX=0.5;exitY=0.5;exitDx=0;exitDy=0;exitPerimeter=0;" parent="1" source="EwN7bqzcY9QhMoL5MkPz-3" target="XWFxjJRULagfrGLMHJp9-26" edge="1">
          <mxGeometry relative="1" as="geometry">
            <mxPoint x="-440" y="263" as="sourcePoint" />
            <mxPoint x="-280" y="263" as="targetPoint" />
          </mxGeometry>
        </mxCell>
        <mxCell id="XWFxjJRULagfrGLMHJp9-47" value="Label" style="edgeLabel;resizable=0;html=1;align=center;verticalAlign=middle;" parent="XWFxjJRULagfrGLMHJp9-46" connectable="0" vertex="1">
          <mxGeometry relative="1" as="geometry" />
        </mxCell>
        <mxCell id="XWFxjJRULagfrGLMHJp9-50" value="Envia Solicitudes &lt;br&gt;(APi Rest)" style="edgeLabel;html=1;align=center;verticalAlign=middle;resizable=0;points=[];" parent="XWFxjJRULagfrGLMHJp9-46" connectable="0" vertex="1">
          <mxGeometry x="0.0043" y="1" relative="1" as="geometry">
            <mxPoint as="offset" />
          </mxGeometry>
        </mxCell>
        <mxCell id="XWFxjJRULagfrGLMHJp9-51" value="" style="endArrow=classic;html=1;rounded=0;entryX=0.083;entryY=0.448;entryDx=0;entryDy=0;entryPerimeter=0;exitX=0.5;exitY=0.5;exitDx=0;exitDy=0;exitPerimeter=0;" parent="1" source="EwN7bqzcY9QhMoL5MkPz-3" target="XWFxjJRULagfrGLMHJp9-15" edge="1">
          <mxGeometry relative="1" as="geometry">
            <mxPoint x="-440" y="258" as="sourcePoint" />
            <mxPoint x="-121" y="210" as="targetPoint" />
          </mxGeometry>
        </mxCell>
        <mxCell id="XWFxjJRULagfrGLMHJp9-52" value="Label" style="edgeLabel;resizable=0;html=1;align=center;verticalAlign=middle;" parent="XWFxjJRULagfrGLMHJp9-51" connectable="0" vertex="1">
          <mxGeometry relative="1" as="geometry" />
        </mxCell>
        <mxCell id="XWFxjJRULagfrGLMHJp9-53" value="Envia Solicitudes &lt;br&gt;(APi Rest)" style="edgeLabel;html=1;align=center;verticalAlign=middle;resizable=0;points=[];" parent="XWFxjJRULagfrGLMHJp9-51" connectable="0" vertex="1">
          <mxGeometry x="0.0043" y="1" relative="1" as="geometry">
            <mxPoint as="offset" />
          </mxGeometry>
        </mxCell>
        <mxCell id="XWFxjJRULagfrGLMHJp9-54" value="" style="endArrow=classic;html=1;rounded=0;entryX=0.134;entryY=0.493;entryDx=0;entryDy=0;entryPerimeter=0;exitX=0.5;exitY=0.5;exitDx=0;exitDy=0;exitPerimeter=0;" parent="1" source="EwN7bqzcY9QhMoL5MkPz-3" target="XWFxjJRULagfrGLMHJp9-27" edge="1">
          <mxGeometry relative="1" as="geometry">
            <mxPoint x="-455" y="260" as="sourcePoint" />
            <mxPoint x="-133" y="290" as="targetPoint" />
          </mxGeometry>
        </mxCell>
        <mxCell id="XWFxjJRULagfrGLMHJp9-55" value="Label" style="edgeLabel;resizable=0;html=1;align=center;verticalAlign=middle;" parent="XWFxjJRULagfrGLMHJp9-54" connectable="0" vertex="1">
          <mxGeometry relative="1" as="geometry" />
        </mxCell>
        <mxCell id="XWFxjJRULagfrGLMHJp9-56" value="Envia Solicitudes &lt;br&gt;(APi Rest)" style="edgeLabel;html=1;align=center;verticalAlign=middle;resizable=0;points=[];" parent="XWFxjJRULagfrGLMHJp9-54" connectable="0" vertex="1">
          <mxGeometry x="0.0043" y="1" relative="1" as="geometry">
            <mxPoint as="offset" />
          </mxGeometry>
        </mxCell>
        <mxCell id="EYln7UqOLpXZX15s7-Pq-1" value="" style="endArrow=open;endFill=1;endSize=12;html=1;rounded=0;exitX=1;exitY=0.5;exitDx=0;exitDy=0;" parent="1" source="XWFxjJRULagfrGLMHJp9-32" target="EwN7bqzcY9QhMoL5MkPz-5" edge="1">
          <mxGeometry width="160" relative="1" as="geometry">
            <mxPoint x="305" y="295" as="sourcePoint" />
            <mxPoint x="533" y="339" as="targetPoint" />
          </mxGeometry>
        </mxCell>
        <mxCell id="EYln7UqOLpXZX15s7-Pq-2" value="Solicita&amp;nbsp;&lt;br&gt;Datos de&lt;br&gt;Acciones" style="edgeLabel;html=1;align=center;verticalAlign=middle;resizable=0;points=[];" parent="EYln7UqOLpXZX15s7-Pq-1" connectable="0" vertex="1">
          <mxGeometry x="0.0826" y="-1" relative="1" as="geometry">
            <mxPoint as="offset" />
          </mxGeometry>
        </mxCell>
      </root>
    </mxGraphModel>
  </diagram>
  <diagram id="GKtXDBUk9ZMDn5BfmO7a" name="Diagrama Módulos">
    <mxGraphModel dx="1112" dy="485" grid="0" gridSize="10" guides="1" tooltips="1" connect="1" arrows="1" fold="1" page="1" pageScale="1" pageWidth="827" pageHeight="1169" math="0" shadow="0">
      <root>
        <mxCell id="0" />
        <mxCell id="1" parent="0" />
        <mxCell id="xDTssWMYACYwsomamqYD-2" value="Modulo Servicio&lt;br style=&quot;border-color: var(--border-color); text-align: center;&quot;&gt;&lt;span style=&quot;text-align: center;&quot;&gt;Bolsa de Valores&lt;/span&gt;" style="verticalAlign=top;align=left;spacingTop=8;spacingLeft=2;spacingRight=12;shape=cube;size=10;direction=south;fontStyle=4;html=1;whiteSpace=wrap;fillColor=#B2FA93;fontColor=#000000;strokeColor=#000000;" parent="1" vertex="1">
          <mxGeometry x="290" y="97" width="160" height="80" as="geometry" />
        </mxCell>
        <mxCell id="xDTssWMYACYwsomamqYD-3" style="rounded=0;orthogonalLoop=1;jettySize=auto;html=1;entryX=0;entryY=0;entryDx=45;entryDy=160;entryPerimeter=0;" parent="1" source="6aO8enWDdjY6wGw29lzm-1" target="xDTssWMYACYwsomamqYD-2" edge="1">
          <mxGeometry relative="1" as="geometry">
            <mxPoint x="304" y="250" as="targetPoint" />
            <mxPoint x="174" y="155.63157894736844" as="sourcePoint" />
          </mxGeometry>
        </mxCell>
        <mxCell id="xDTssWMYACYwsomamqYD-4" value="¨Procesar&lt;br&gt;Solicitudes" style="edgeLabel;html=1;align=center;verticalAlign=middle;resizable=0;points=[];" parent="xDTssWMYACYwsomamqYD-3" connectable="0" vertex="1">
          <mxGeometry x="-0.3878" y="-1" relative="1" as="geometry">
            <mxPoint x="27" y="-3" as="offset" />
          </mxGeometry>
        </mxCell>
        <mxCell id="xDTssWMYACYwsomamqYD-7" value="Base de Datos&lt;br&gt;Bolsa De Valores" style="verticalAlign=top;align=left;spacingTop=8;spacingLeft=2;spacingRight=12;shape=cube;size=10;direction=south;fontStyle=4;html=1;whiteSpace=wrap;fillColor=#6a00ff;fontColor=#ffffff;strokeColor=#3700CC;" parent="1" vertex="1">
          <mxGeometry x="554" y="170" width="130" height="70" as="geometry" />
        </mxCell>
        <mxCell id="xDTssWMYACYwsomamqYD-12" style="edgeStyle=orthogonalEdgeStyle;rounded=0;orthogonalLoop=1;jettySize=auto;html=1;entryX=0;entryY=0;entryDx=40;entryDy=130;entryPerimeter=0;" parent="1" source="xDTssWMYACYwsomamqYD-2" target="xDTssWMYACYwsomamqYD-7" edge="1">
          <mxGeometry relative="1" as="geometry" />
        </mxCell>
        <mxCell id="xDTssWMYACYwsomamqYD-13" value="Realiza &lt;br&gt;operacion" style="edgeLabel;html=1;align=center;verticalAlign=middle;resizable=0;points=[];" parent="xDTssWMYACYwsomamqYD-12" connectable="0" vertex="1">
          <mxGeometry x="0.5" y="2" relative="1" as="geometry">
            <mxPoint x="-7" y="30" as="offset" />
          </mxGeometry>
        </mxCell>
        <mxCell id="xDTssWMYACYwsomamqYD-14" value="&lt;font style=&quot;font-size: 20px;&quot;&gt;DIAGRAMA DE MODULOS&lt;/font&gt;" style="text;align=center;fontStyle=1;verticalAlign=middle;spacingLeft=3;spacingRight=3;strokeColor=none;rotatable=0;points=[[0,0.5],[1,0.5]];portConstraint=eastwest;html=1;" parent="1" vertex="1">
          <mxGeometry x="370" y="28" width="80" height="26" as="geometry" />
        </mxCell>
        <mxCell id="1GkcxjTLrNMktujg273e-1" value="Base de Datos&lt;br&gt;Clientes" style="verticalAlign=top;align=left;spacingTop=8;spacingLeft=2;spacingRight=12;shape=cube;size=10;direction=south;fontStyle=4;html=1;whiteSpace=wrap;fillColor=#6a00ff;fontColor=#ffffff;strokeColor=#3700CC;" parent="1" vertex="1">
          <mxGeometry x="556" y="319" width="130" height="70" as="geometry" />
        </mxCell>
        <mxCell id="BYAwx1w_MpX1KiHJDhTR-8" style="edgeStyle=orthogonalEdgeStyle;rounded=0;orthogonalLoop=1;jettySize=auto;html=1;" parent="1" source="2v9AQpI9yItNw2zxcq6j-1" target="1GkcxjTLrNMktujg273e-1" edge="1">
          <mxGeometry relative="1" as="geometry">
            <Array as="points">
              <mxPoint x="503" y="420" />
              <mxPoint x="503" y="354" />
            </Array>
          </mxGeometry>
        </mxCell>
        <mxCell id="BYAwx1w_MpX1KiHJDhTR-9" value="Realiza&lt;br&gt;Operacion" style="edgeLabel;html=1;align=center;verticalAlign=middle;resizable=0;points=[];" parent="BYAwx1w_MpX1KiHJDhTR-8" connectable="0" vertex="1">
          <mxGeometry x="-0.2584" y="1" relative="1" as="geometry">
            <mxPoint as="offset" />
          </mxGeometry>
        </mxCell>
        <mxCell id="2v9AQpI9yItNw2zxcq6j-1" value="&lt;br style=&quot;border-color: var(--border-color); color: rgb(0, 0, 0); text-align: center;&quot;&gt;&lt;div style=&quot;text-align: center;&quot;&gt;&lt;span style=&quot;background-color: initial;&quot;&gt;&lt;font color=&quot;#000000&quot;&gt;Modulo Servicio&lt;/font&gt;&lt;/span&gt;&lt;/div&gt;&lt;div style=&quot;text-align: center;&quot;&gt;&lt;span style=&quot;background-color: initial;&quot;&gt;&lt;font color=&quot;#000000&quot;&gt;Cliente&lt;/font&gt;&lt;/span&gt;&lt;/div&gt;" style="verticalAlign=top;align=left;spacingTop=8;spacingLeft=2;spacingRight=12;shape=cube;size=10;direction=south;fontStyle=4;html=1;whiteSpace=wrap;fillColor=#B2FA93;strokeColor=#005700;fontColor=#ffffff;" parent="1" vertex="1">
          <mxGeometry x="284" y="380" width="160" height="80" as="geometry" />
        </mxCell>
        <mxCell id="TYYmrv0rDGwX4hbnm-KF-1" style="rounded=0;orthogonalLoop=1;jettySize=auto;html=1;entryX=0;entryY=0;entryDx=45;entryDy=160;entryPerimeter=0;exitX=0.632;exitY=-0.018;exitDx=0;exitDy=0;exitPerimeter=0;" parent="1" source="6aO8enWDdjY6wGw29lzm-3" target="2v9AQpI9yItNw2zxcq6j-1" edge="1">
          <mxGeometry relative="1" as="geometry">
            <mxPoint x="260" y="145" as="targetPoint" />
            <mxPoint x="174" y="218" as="sourcePoint" />
          </mxGeometry>
        </mxCell>
        <mxCell id="TYYmrv0rDGwX4hbnm-KF-2" value="¨Procesar&lt;br&gt;Solicitudes" style="edgeLabel;html=1;align=center;verticalAlign=middle;resizable=0;points=[];" parent="TYYmrv0rDGwX4hbnm-KF-1" connectable="0" vertex="1">
          <mxGeometry x="-0.3878" y="-1" relative="1" as="geometry">
            <mxPoint x="27" y="-3" as="offset" />
          </mxGeometry>
        </mxCell>
        <mxCell id="6aO8enWDdjY6wGw29lzm-1" value="Modulo&lt;br&gt;Control&lt;br&gt;Bolsa de&amp;nbsp;&lt;br&gt;Valores" style="verticalAlign=top;align=left;spacingTop=8;spacingLeft=2;spacingRight=12;shape=cube;size=10;direction=south;fontStyle=4;html=1;whiteSpace=wrap;fillColor=#647687;strokeColor=#314354;fontColor=#ffffff;" parent="1" vertex="1">
          <mxGeometry x="45" y="90" width="90" height="100" as="geometry" />
        </mxCell>
        <mxCell id="6aO8enWDdjY6wGw29lzm-2" value="Modulo&lt;br style=&quot;border-color: var(--border-color);&quot;&gt;Control&lt;br&gt;Portafolio" style="verticalAlign=top;align=left;spacingTop=8;spacingLeft=2;spacingRight=12;shape=cube;size=10;direction=south;fontStyle=4;html=1;whiteSpace=wrap;fillColor=#647687;strokeColor=#314354;fontColor=#ffffff;" parent="1" vertex="1">
          <mxGeometry x="37" y="235" width="90" height="100" as="geometry" />
        </mxCell>
        <mxCell id="6aO8enWDdjY6wGw29lzm-3" value="Modulo&lt;br style=&quot;border-color: var(--border-color);&quot;&gt;Control&lt;br&gt;Cliente" style="verticalAlign=top;align=left;spacingTop=8;spacingLeft=2;spacingRight=12;shape=cube;size=10;direction=south;fontStyle=4;html=1;whiteSpace=wrap;fillColor=#647687;strokeColor=#314354;fontColor=#ffffff;" parent="1" vertex="1">
          <mxGeometry x="31" y="364" width="90" height="100" as="geometry" />
        </mxCell>
        <mxCell id="6aO8enWDdjY6wGw29lzm-4" value="&lt;br style=&quot;border-color: var(--border-color); color: rgb(0, 0, 0); text-align: center;&quot;&gt;&lt;span style=&quot;border-color: var(--border-color); color: rgb(0, 0, 0); text-align: center;&quot;&gt;Modulo Servicio&lt;br&gt;Portafolio&lt;br&gt;&lt;/span&gt;" style="verticalAlign=top;align=left;spacingTop=8;spacingLeft=2;spacingRight=12;shape=cube;size=10;direction=south;fontStyle=4;html=1;whiteSpace=wrap;fillColor=#B2FA93;strokeColor=#314354;fontColor=#ffffff;" parent="1" vertex="1">
          <mxGeometry x="286" y="246" width="168" height="86" as="geometry" />
        </mxCell>
        <mxCell id="6aO8enWDdjY6wGw29lzm-5" style="rounded=0;orthogonalLoop=1;jettySize=auto;html=1;entryX=0;entryY=0;entryDx=48;entryDy=168;entryPerimeter=0;exitX=0.592;exitY=0.013;exitDx=0;exitDy=0;exitPerimeter=0;" parent="1" source="6aO8enWDdjY6wGw29lzm-2" target="6aO8enWDdjY6wGw29lzm-4" edge="1">
          <mxGeometry relative="1" as="geometry">
            <mxPoint x="311" y="277" as="targetPoint" />
            <mxPoint x="106" y="284" as="sourcePoint" />
          </mxGeometry>
        </mxCell>
        <mxCell id="6aO8enWDdjY6wGw29lzm-6" value="¨Procesar&lt;br&gt;Solicitudes" style="edgeLabel;html=1;align=center;verticalAlign=middle;resizable=0;points=[];" parent="6aO8enWDdjY6wGw29lzm-5" connectable="0" vertex="1">
          <mxGeometry x="-0.3878" y="-1" relative="1" as="geometry">
            <mxPoint x="27" y="-3" as="offset" />
          </mxGeometry>
        </mxCell>
        <mxCell id="6aO8enWDdjY6wGw29lzm-7" style="edgeStyle=orthogonalEdgeStyle;rounded=0;orthogonalLoop=1;jettySize=auto;html=1;exitX=0;exitY=0;exitDx=38;exitDy=0;exitPerimeter=0;" parent="1" source="6aO8enWDdjY6wGw29lzm-4" target="1GkcxjTLrNMktujg273e-1" edge="1">
          <mxGeometry relative="1" as="geometry">
            <mxPoint x="470" y="419" as="sourcePoint" />
            <mxPoint x="544" y="303" as="targetPoint" />
            <Array as="points">
              <mxPoint x="454" y="289" />
              <mxPoint x="505" y="289" />
              <mxPoint x="505" y="354" />
            </Array>
          </mxGeometry>
        </mxCell>
        <mxCell id="6aO8enWDdjY6wGw29lzm-8" value="Realiza &lt;br&gt;operacion" style="edgeLabel;html=1;align=center;verticalAlign=middle;resizable=0;points=[];" parent="6aO8enWDdjY6wGw29lzm-7" connectable="0" vertex="1">
          <mxGeometry x="0.5" y="2" relative="1" as="geometry">
            <mxPoint x="-25" y="-24" as="offset" />
          </mxGeometry>
        </mxCell>
        <mxCell id="BYAwx1w_MpX1KiHJDhTR-4" style="edgeStyle=orthogonalEdgeStyle;rounded=0;orthogonalLoop=1;jettySize=auto;html=1;entryX=0;entryY=0;entryDx=40;entryDy=130;entryPerimeter=0;" parent="1" source="6aO8enWDdjY6wGw29lzm-4" target="xDTssWMYACYwsomamqYD-7" edge="1">
          <mxGeometry relative="1" as="geometry">
            <mxPoint x="464" y="294" as="sourcePoint" />
            <mxPoint x="564" y="325" as="targetPoint" />
          </mxGeometry>
        </mxCell>
        <mxCell id="BYAwx1w_MpX1KiHJDhTR-5" value="Realiza &lt;br&gt;operacion" style="edgeLabel;html=1;align=center;verticalAlign=middle;resizable=0;points=[];" parent="BYAwx1w_MpX1KiHJDhTR-4" connectable="0" vertex="1">
          <mxGeometry x="0.5" y="2" relative="1" as="geometry">
            <mxPoint x="-6" y="-42" as="offset" />
          </mxGeometry>
        </mxCell>
      </root>
    </mxGraphModel>
  </diagram>
  <diagram id="05OBAxXkbf1SEoKmplC5" name="Diagrama de secuencia">
    <mxGraphModel grid="0" page="1" gridSize="10" guides="1" tooltips="1" connect="1" arrows="1" fold="1" pageScale="1" pageWidth="827" pageHeight="1169" math="0" shadow="0">
      <root>
        <mxCell id="0" />
        <mxCell id="1" parent="0" />
        <mxCell id="d41UqvFMY-rdn9kp7sbN-1" value="Repositories&lt;br&gt;Bolsa Valores" style="shape=umlLifeline;perimeter=lifelinePerimeter;whiteSpace=wrap;html=1;container=1;dropTarget=0;collapsible=0;recursiveResize=0;outlineConnect=0;portConstraint=eastwest;newEdgeStyle={&quot;curved&quot;:0,&quot;rounded&quot;:0};fillColor=#dae8fc;strokeColor=#6c8ebf;gradientColor=#7ea6e0;" vertex="1" parent="1">
          <mxGeometry x="485" y="71.5" width="100" height="324.5" as="geometry" />
        </mxCell>
        <mxCell id="d41UqvFMY-rdn9kp7sbN-2" value="" style="html=1;points=[[0,0,0,0,5],[0,1,0,0,-5],[1,0,0,0,5],[1,1,0,0,-5]];perimeter=orthogonalPerimeter;outlineConnect=0;targetShapes=umlLifeline;portConstraint=eastwest;newEdgeStyle={&quot;curved&quot;:0,&quot;rounded&quot;:0};fillColor=#dae8fc;strokeColor=#6c8ebf;gradientColor=#7ea6e0;" vertex="1" parent="d41UqvFMY-rdn9kp7sbN-1">
          <mxGeometry x="40" y="63" width="20" height="67" as="geometry" />
        </mxCell>
        <mxCell id="d41UqvFMY-rdn9kp7sbN-5" value="" style="shape=umlLifeline;perimeter=lifelinePerimeter;whiteSpace=wrap;html=1;container=1;dropTarget=0;collapsible=0;recursiveResize=0;outlineConnect=0;portConstraint=eastwest;newEdgeStyle={&quot;curved&quot;:0,&quot;rounded&quot;:0};participant=umlActor;fillColor=#e51400;fontColor=#ffffff;strokeColor=#B20000;" vertex="1" parent="1">
          <mxGeometry x="61" y="69.5" width="20" height="327.5" as="geometry" />
        </mxCell>
        <mxCell id="d41UqvFMY-rdn9kp7sbN-12" value="Repositories&lt;br&gt;Clientes" style="shape=umlLifeline;perimeter=lifelinePerimeter;whiteSpace=wrap;html=1;container=1;dropTarget=0;collapsible=0;recursiveResize=0;outlineConnect=0;portConstraint=eastwest;newEdgeStyle={&quot;curved&quot;:0,&quot;rounded&quot;:0};fillColor=#dae8fc;strokeColor=#6c8ebf;gradientColor=#7ea6e0;" vertex="1" parent="1">
          <mxGeometry x="628" y="72.5" width="100" height="324.5" as="geometry" />
        </mxCell>
        <mxCell id="d41UqvFMY-rdn9kp7sbN-13" value="" style="html=1;points=[[0,0,0,0,5],[0,1,0,0,-5],[1,0,0,0,5],[1,1,0,0,-5]];perimeter=orthogonalPerimeter;outlineConnect=0;targetShapes=umlLifeline;portConstraint=eastwest;newEdgeStyle={&quot;curved&quot;:0,&quot;rounded&quot;:0};fillColor=#dae8fc;gradientColor=#7ea6e0;strokeColor=#6c8ebf;" vertex="1" parent="d41UqvFMY-rdn9kp7sbN-12">
          <mxGeometry x="40" y="127.5" width="20" height="62.5" as="geometry" />
        </mxCell>
        <mxCell id="yiRrgdCU8acSAibPzcv3-1" value="" style="html=1;points=[[0,0,0,0,5],[0,1,0,0,-5],[1,0,0,0,5],[1,1,0,0,-5]];perimeter=orthogonalPerimeter;outlineConnect=0;targetShapes=umlLifeline;portConstraint=eastwest;newEdgeStyle={&quot;curved&quot;:0,&quot;rounded&quot;:0};fillColor=#dae8fc;gradientColor=#7ea6e0;strokeColor=#6c8ebf;" vertex="1" parent="d41UqvFMY-rdn9kp7sbN-12">
          <mxGeometry x="40" y="216.5" width="20" height="62.5" as="geometry" />
        </mxCell>
        <mxCell id="d41UqvFMY-rdn9kp7sbN-14" value="Controller&lt;br&gt;Portafolio" style="shape=umlLifeline;perimeter=lifelinePerimeter;whiteSpace=wrap;html=1;container=1;dropTarget=0;collapsible=0;recursiveResize=0;outlineConnect=0;portConstraint=eastwest;newEdgeStyle={&quot;curved&quot;:0,&quot;rounded&quot;:0};fillColor=#ffcd28;strokeColor=#d79b00;gradientColor=#ffa500;" vertex="1" parent="1">
          <mxGeometry x="174" y="70.5" width="100" height="327.5" as="geometry" />
        </mxCell>
        <mxCell id="d41UqvFMY-rdn9kp7sbN-15" value="" style="html=1;points=[[0,0,0,0,5],[0,1,0,0,-5],[1,0,0,0,5],[1,1,0,0,-5]];perimeter=orthogonalPerimeter;outlineConnect=0;targetShapes=umlLifeline;portConstraint=eastwest;newEdgeStyle={&quot;curved&quot;:0,&quot;rounded&quot;:0};fillColor=#ffcd28;strokeColor=#d79b00;gradientColor=#ffa500;" vertex="1" parent="d41UqvFMY-rdn9kp7sbN-14">
          <mxGeometry x="40" y="70" width="20" height="59.5" as="geometry" />
        </mxCell>
        <mxCell id="d41UqvFMY-rdn9kp7sbN-18" value="Services&lt;br&gt;Portafolio" style="shape=umlLifeline;perimeter=lifelinePerimeter;whiteSpace=wrap;html=1;container=1;dropTarget=0;collapsible=0;recursiveResize=0;outlineConnect=0;portConstraint=eastwest;newEdgeStyle={&quot;curved&quot;:0,&quot;rounded&quot;:0};fillColor=#f5f5f5;strokeColor=#666666;gradientColor=#b3b3b3;" vertex="1" parent="1">
          <mxGeometry x="327" y="72.5" width="100" height="322.5" as="geometry" />
        </mxCell>
        <mxCell id="d41UqvFMY-rdn9kp7sbN-19" value="" style="html=1;points=[[0,0,0,0,5],[0,1,0,0,-5],[1,0,0,0,5],[1,1,0,0,-5]];perimeter=orthogonalPerimeter;outlineConnect=0;targetShapes=umlLifeline;portConstraint=eastwest;newEdgeStyle={&quot;curved&quot;:0,&quot;rounded&quot;:0};fillColor=#f5f5f5;strokeColor=#666666;gradientColor=#b3b3b3;" vertex="1" parent="d41UqvFMY-rdn9kp7sbN-18">
          <mxGeometry x="42" y="70" width="20" height="224" as="geometry" />
        </mxCell>
        <mxCell id="d41UqvFMY-rdn9kp7sbN-20" value="Envia solicitud" style="html=1;verticalAlign=bottom;endArrow=block;curved=0;rounded=0;" edge="1" parent="1">
          <mxGeometry relative="1" as="geometry">
            <mxPoint x="70.75925925925924" y="152.25" as="sourcePoint" />
            <mxPoint x="214" y="152.25" as="targetPoint" />
          </mxGeometry>
        </mxCell>
        <mxCell id="d41UqvFMY-rdn9kp7sbN-21" value="Muestra resultado" style="html=1;verticalAlign=bottom;endArrow=open;dashed=1;endSize=8;curved=0;rounded=0;" edge="1" parent="1">
          <mxGeometry relative="1" as="geometry">
            <mxPoint x="70.75925925925924" y="193.5" as="targetPoint" />
            <mxPoint x="214" y="193.5" as="sourcePoint" />
          </mxGeometry>
        </mxCell>
        <mxCell id="d41UqvFMY-rdn9kp7sbN-22" value="Procesa solicitud" style="html=1;verticalAlign=bottom;endArrow=block;curved=0;rounded=0;" edge="1" parent="1">
          <mxGeometry relative="1" as="geometry">
            <mxPoint x="234" y="154.25" as="sourcePoint" />
            <mxPoint x="369" y="154.25" as="targetPoint" />
          </mxGeometry>
        </mxCell>
        <mxCell id="d41UqvFMY-rdn9kp7sbN-23" value="Retorna resultado" style="html=1;verticalAlign=bottom;endArrow=open;dashed=1;endSize=8;curved=0;rounded=0;" edge="1" parent="1">
          <mxGeometry relative="1" as="geometry">
            <mxPoint x="234" y="187.4999999999999" as="targetPoint" />
            <mxPoint x="369" y="187.4999999999999" as="sourcePoint" />
          </mxGeometry>
        </mxCell>
        <mxCell id="d41UqvFMY-rdn9kp7sbN-24" value="Solicita accion" style="html=1;verticalAlign=bottom;endArrow=block;curved=0;rounded=0;" edge="1" parent="1">
          <mxGeometry relative="1" as="geometry">
            <mxPoint x="389" y="156.4999999999999" as="sourcePoint" />
            <mxPoint x="525" y="156.4999999999999" as="targetPoint" />
          </mxGeometry>
        </mxCell>
        <mxCell id="d41UqvFMY-rdn9kp7sbN-25" value="Retorna accion solicitada" style="html=1;verticalAlign=bottom;endArrow=open;dashed=1;endSize=8;curved=0;rounded=0;" edge="1" parent="1">
          <mxGeometry relative="1" as="geometry">
            <mxPoint x="389" y="188.9999999999999" as="targetPoint" />
            <mxPoint x="525" y="188.9999999999999" as="sourcePoint" />
          </mxGeometry>
        </mxCell>
        <mxCell id="d41UqvFMY-rdn9kp7sbN-26" value="Agrega accion solicitada" style="html=1;verticalAlign=bottom;endArrow=block;curved=0;rounded=0;" edge="1" parent="1">
          <mxGeometry relative="1" as="geometry">
            <mxPoint x="389" y="304.9999999999999" as="sourcePoint" />
            <mxPoint x="668" y="304.9999999999999" as="targetPoint" />
          </mxGeometry>
        </mxCell>
        <mxCell id="d41UqvFMY-rdn9kp7sbN-27" value="Retorna resultado" style="html=1;verticalAlign=bottom;endArrow=open;dashed=1;endSize=8;curved=0;rounded=0;" edge="1" parent="1">
          <mxGeometry relative="1" as="geometry">
            <mxPoint x="389" y="336.9999999999999" as="targetPoint" />
            <mxPoint x="668" y="336.9999999999999" as="sourcePoint" />
          </mxGeometry>
        </mxCell>
        <mxCell id="L_njF1ZFyLE8kWGCWKfU-1" value="&lt;font style=&quot;font-size: 20px;&quot;&gt;DIAGRAMA DE SECUENCIA AGREGAR ACCION&lt;/font&gt;" style="text;align=center;fontStyle=1;verticalAlign=middle;spacingLeft=3;spacingRight=3;strokeColor=none;rotatable=0;points=[[0,0.5],[1,0.5]];portConstraint=eastwest;html=1;" vertex="1" parent="1">
          <mxGeometry x="247" y="26" width="80" height="26" as="geometry" />
        </mxCell>
        <mxCell id="yiRrgdCU8acSAibPzcv3-2" value="Solicita cliente" style="html=1;verticalAlign=bottom;endArrow=block;curved=0;rounded=0;" edge="1" parent="1" target="d41UqvFMY-rdn9kp7sbN-13">
          <mxGeometry relative="1" as="geometry">
            <mxPoint x="389" y="226" as="sourcePoint" />
            <mxPoint x="668" y="226" as="targetPoint" />
          </mxGeometry>
        </mxCell>
        <mxCell id="yiRrgdCU8acSAibPzcv3-3" value="Retorna cliente" style="html=1;verticalAlign=bottom;endArrow=open;dashed=1;endSize=8;curved=0;rounded=0;" edge="1" parent="1">
          <mxGeometry relative="1" as="geometry">
            <mxPoint x="389" y="250.9999999999999" as="targetPoint" />
            <mxPoint x="671" y="253" as="sourcePoint" />
          </mxGeometry>
        </mxCell>
      </root>
    </mxGraphModel>
  </diagram>
</mxfile>
